# xmcd
#
# Track frame offsets:
#	150
#	11552
#	23051
#	35511
#	47675
#	65037
#	76727
#	88864
#	116705
#	129460
#	141621
#	166880
#	186242
#	199984
#	210452
#	222942
#
# Disc length: 3140
#
# Revision: 3
# Processed by: cddbd v1.5.1PL0 Copyright (c) Steve Scherf et al.
# Submitted via: CDex 1.51
# Normalized: r0:TDELIM( - ),TSWAP
#
DISCID=e90c4210
DTITLE=Various Artist - The Ultimate Blues Collection
DYEAR=2004
DGENRE=Blues
TTITLE0=Son House - 17-John The Revelator
TTITLE1=John Lee Hooker - 18-Boom Boom
TTITLE2=Johnny Winter - 19-Dallas
TTITLE3=Little Walker - 20-My Babe
TTITLE4=Kenny Wayne Shepherd with James Cotton - 21-The Spider And The Fly
TTITLE5=Albert King - 22-Crosscut Saw
TTITLE6=Jimmy Reed - 23-Bright Lights Big City
TTITLE7=Willie Dixon - 24-Back Door Man
TTITLE8=Big Joe Turner - 25-TV Mama
TTITLE9=Downchild Blues Band - 26-(I Got Everything I Need) Almost
TTITLE10=Albert Collins - 27-Blue Monday Hangover
TTITLE11=Buddy Guy - 28-T-Bone Shuffle
TTITLE12=T-Bone Walker - 29-Stormy Monday
TTITLE13=King Biscuit Boy - 30-Step Back Baby
TTITLE14=Elmore James - 31-Dust My Broom
TTITLE15=RY Cooder - 32-Dark Is The Night
EXTD=YEAR: 2004
EXTT0=
EXTT1=
EXTT2=
EXTT3=
EXTT4=
EXTT5=
EXTT6=
EXTT7=
EXTT8=
EXTT9=
EXTT10=
EXTT11=
EXTT12=
EXTT13=
EXTT14=
EXTT15=
PLAYORDER=
